<svg width="212" height="56" viewBox="0 0 212 56" fill="none" xmlns="http://www.w3.org/2000/svg">
<g filter="url(#filter0_d_5473_134)">
<path d="M39.466 33.068C39.65 33.528 39.6193 33.988 39.374 34.448C39.1287 34.8773 38.7607 35.092 38.27 35.092H27.874C27.506 35.092 27.184 34.954 26.908 34.678C26.6627 34.402 26.54 34.0647 26.54 33.666V30.354L19.594 14.438L18.996 13.058C18.904 12.8433 18.7353 12.736 18.49 12.736C18.2753 12.7053 18.0913 12.8127 17.938 13.058L17.294 14.392L15.546 17.934C15.086 18.8847 15.0707 19.866 15.5 20.878L20.836 33.068C21.02 33.528 20.9893 33.988 20.744 34.448C20.4987 34.8773 20.1307 35.092 19.64 35.092H9.244C7.80267 35.092 6.69867 34.4173 5.932 33.068C5.16533 31.78 5.07333 30.4153 5.656 28.974V28.836L6.622 26.858L15.316 9.102L15.684 8.274L16.052 7.4C16.236 6.97067 16.236 6.54133 16.052 6.112L15.5 4.962C15.2547 4.502 15.2547 4.02667 15.5 3.536C15.7453 3.04533 16.1133 2.8 16.604 2.8H27.92C28.4107 2.8 28.7787 3.04533 29.024 3.536C29.2693 4.02667 29.2693 4.502 29.024 4.962L28.472 6.112C28.288 6.54133 28.288 6.97067 28.472 7.4L28.84 8.274L39.42 32.93L39.466 33.068ZM56.7519 16.554C56.5986 16.186 56.3379 15.9407 55.9699 15.818C55.6019 15.6953 55.2339 15.7107 54.8659 15.864C54.5593 16.0173 54.2833 16.2473 54.0379 16.554C53.8233 16.83 53.6393 17.152 53.4859 17.52C53.3326 17.888 53.2099 18.256 53.1179 18.624C53.0566 18.9613 53.0259 19.2527 53.0259 19.498V29.94C53.0259 30.0933 53.0719 30.308 53.1639 30.584C53.2866 30.86 53.4093 31.1513 53.5319 31.458C53.6853 31.734 53.8386 32.0253 53.9919 32.332C54.1453 32.608 54.2679 32.838 54.3599 33.022C54.6053 33.482 54.6053 33.942 54.3599 34.402C54.1146 34.862 53.7466 35.092 53.2559 35.092H43.4119C42.9213 35.092 42.5533 34.862 42.3079 34.402C42.0626 33.942 42.0626 33.482 42.3079 33.022C42.3999 32.838 42.5226 32.608 42.6759 32.332C42.8293 32.0253 42.9673 31.734 43.0899 31.458C43.2433 31.1513 43.3659 30.86 43.4579 30.584C43.5806 30.308 43.6419 30.0933 43.6419 29.94V16.14C43.6419 15.9867 43.5806 15.772 43.4579 15.496C43.3659 15.22 43.2433 14.944 43.0899 14.668C42.9673 14.3613 42.8293 14.07 42.6759 13.794C42.5226 13.4873 42.3999 13.242 42.3079 13.058C42.0626 12.598 42.0626 12.138 42.3079 11.678C42.5533 11.218 42.9213 10.988 43.4119 10.988H51.3239C51.8146 11.0187 52.2286 11.2027 52.5659 11.54C52.9033 11.8773 53.0719 12.2913 53.0719 12.782C54.0533 12.1687 55.1419 11.632 56.3379 11.172C57.5339 10.712 58.7146 10.5127 59.8799 10.574C60.4319 10.6047 60.9686 10.7427 61.4899 10.988C62.0419 11.2027 62.5173 11.494 62.9159 11.862C63.3453 12.23 63.6826 12.6747 63.9279 13.196C64.1733 13.6867 64.2959 14.2387 64.2959 14.852C64.2959 15.9253 63.9739 16.784 63.3299 17.428C62.7166 18.072 61.9959 18.486 61.1679 18.67C60.3399 18.854 59.4966 18.7773 58.6379 18.44C57.8099 18.072 57.1813 17.3973 56.7519 16.416V16.462V16.554ZM85.461 33.252C85.461 33.6813 85.2616 33.988 84.863 34.172C83.5443 34.7853 82.241 35.184 80.953 35.368C79.6956 35.5827 78.515 35.69 77.411 35.69C76.1843 35.69 75.111 35.5367 74.191 35.23C73.3016 34.954 72.5503 34.4787 71.937 33.804C71.3543 33.1293 70.9096 32.24 70.603 31.136C70.327 30.0013 70.189 28.6213 70.189 26.996V18.992V15.404C70.189 15.128 70.0816 14.898 69.867 14.714C69.683 14.4993 69.453 14.392 69.177 14.392H67.935C67.659 14.392 67.4136 14.3 67.199 14.116C67.015 13.9013 66.923 13.656 66.923 13.38V12C66.923 11.724 67.015 11.494 67.199 11.31C67.383 11.0953 67.613 10.9727 67.889 10.942C68.717 10.8807 69.545 10.666 70.373 10.298C71.2316 9.93 72.029 9.45467 72.765 8.872C73.5316 8.28933 74.2063 7.63 74.789 6.894C75.4023 6.12733 75.8776 5.33 76.215 4.502C76.3683 4.10333 76.675 3.904 77.135 3.904H78.561C78.837 3.904 79.067 4.01133 79.251 4.226C79.4656 4.41 79.573 4.64 79.573 4.916V9.976C79.573 10.252 79.665 10.4973 79.849 10.712C80.0636 10.896 80.309 10.988 80.585 10.988H84.403C84.679 10.988 84.909 11.0953 85.093 11.31C85.3076 11.494 85.415 11.724 85.415 12V13.334C85.415 13.61 85.3076 13.8553 85.093 14.07C84.909 14.254 84.679 14.346 84.403 14.346H80.585C80.309 14.346 80.0636 14.4533 79.849 14.668C79.665 14.852 79.573 15.082 79.573 15.358V27.318C79.573 28.238 79.895 29.0353 80.539 29.71C81.2136 30.354 82.011 30.676 82.931 30.676C83.3603 30.676 83.713 30.6147 83.989 30.492C84.3263 30.4 84.633 30.446 84.909 30.63C85.185 30.814 85.323 31.0747 85.323 31.412V33.16L85.461 33.252ZM97.7433 10.758C99.4913 10.3593 101.301 10.3133 103.171 10.62C105.042 10.896 106.744 11.5247 108.277 12.506C109.841 13.4567 111.129 14.7753 112.141 16.462C113.184 18.118 113.736 20.1267 113.797 22.488V23.178C113.797 23.5153 113.675 23.8067 113.429 24.052C113.184 24.2973 112.893 24.42 112.555 24.42H98.4793C98.1727 24.42 97.9273 24.5427 97.7433 24.788C97.5593 25.0333 97.4827 25.294 97.5133 25.57C97.6973 26.95 98.3413 28.0693 99.4453 28.928C100.795 29.9707 102.282 30.308 103.907 29.94L111.129 28.376C111.589 28.284 111.942 28.4373 112.187 28.836C112.433 29.2347 112.433 29.6333 112.187 30.032C111.574 31.0133 110.853 31.8567 110.025 32.562C109.197 33.2367 108.293 33.7887 107.311 34.218C106.361 34.6473 105.333 34.9693 104.229 35.184C103.156 35.3987 102.067 35.506 100.963 35.506H100.917H100.779H99.9513H99.9053H99.7673C98.2647 35.3833 96.7927 35.046 95.3513 34.494C93.9407 33.9113 92.6833 33.0987 91.5793 32.056C90.4753 31.0133 89.586 29.7407 88.9113 28.238C88.2367 26.7353 87.8993 25.0027 87.8993 23.04C87.8993 21.292 88.1753 19.728 88.7273 18.348C89.2793 16.968 90 15.772 90.8893 14.76C91.8093 13.748 92.852 12.92 94.0173 12.276C95.2133 11.6013 96.4553 11.126 97.7433 10.85V10.758ZM103.033 21.43C103.371 21.43 103.662 21.3073 103.907 21.062C104.153 20.8167 104.275 20.5253 104.275 20.188V17.52C104.275 16.5693 103.938 15.7567 103.263 15.082C102.619 14.4073 101.822 14.07 100.871 14.07C99.9207 14.07 99.108 14.4073 98.4333 15.082C97.7893 15.7567 97.4673 16.5693 97.4673 17.52V20.188C97.4673 20.5253 97.59 20.8167 97.8353 21.062C98.0807 21.3073 98.372 21.43 98.7093 21.43H103.033ZM127.19 12.966C128.754 11.9847 130.164 11.3407 131.422 11.034C132.679 10.7273 133.967 10.574 135.286 10.574C136.635 10.574 137.816 10.804 138.828 11.264C139.87 11.724 140.698 12.5213 141.312 13.656C141.68 13.38 142.124 13.0733 142.646 12.736C143.198 12.368 143.842 12.0307 144.578 11.724C145.344 11.3867 146.218 11.1107 147.2 10.896C148.181 10.6813 149.316 10.574 150.604 10.574C151.677 10.574 152.643 10.7273 153.502 11.034C154.391 11.31 155.142 11.7853 155.756 12.46C156.4 13.1347 156.89 14.0393 157.228 15.174C157.596 16.278 157.78 17.6427 157.78 19.268C157.78 19.728 157.78 20.326 157.78 21.062C157.78 21.7673 157.78 22.5033 157.78 23.27C157.81 24.006 157.826 24.742 157.826 25.478C157.826 26.1833 157.826 26.7813 157.826 27.272V30.078C157.826 30.3233 157.872 30.5533 157.964 30.768L159.16 33.16C159.405 33.62 159.405 34.08 159.16 34.54C158.914 35 158.546 35.23 158.056 35.23H148.212C147.721 35.23 147.353 35 147.108 34.54C146.862 34.08 146.862 33.62 147.108 33.16C147.261 32.8533 147.368 32.6387 147.43 32.516C147.522 32.3627 147.598 32.2247 147.66 32.102C147.721 31.9793 147.798 31.826 147.89 31.642C147.982 31.458 148.12 31.182 148.304 30.814C148.396 30.5993 148.442 30.3693 148.442 30.124C148.442 28.1307 148.442 26.1527 148.442 24.19C148.442 22.2273 148.426 20.2493 148.396 18.256C148.396 17.6427 148.227 17.0907 147.89 16.6C147.675 16.2933 147.46 16.0633 147.246 15.91C146.694 15.5113 146.111 15.312 145.498 15.312C144.731 15.312 144.056 15.5727 143.474 16.094C142.922 16.6153 142.615 17.244 142.554 17.98V24.88V27.226V30.032C142.554 30.2773 142.6 30.5073 142.692 30.722L143.888 33.114C144.133 33.574 144.133 34.034 143.888 34.494C143.642 34.954 143.274 35.184 142.784 35.184H132.894C132.403 35.184 132.035 34.954 131.79 34.494C131.544 34.034 131.544 33.574 131.79 33.114L132.986 30.722C133.078 30.5073 133.124 30.2773 133.124 30.032V22.396V18.118C133.124 17.5047 132.955 16.9527 132.618 16.462C132.403 16.1553 132.188 15.9253 131.974 15.772C131.422 15.3733 130.839 15.174 130.226 15.174C129.459 15.174 128.784 15.4347 128.202 15.956C127.65 16.4773 127.343 17.106 127.282 17.842V29.94C127.282 30.1853 127.328 30.4153 127.42 30.63C127.634 31.0593 127.788 31.366 127.88 31.55C127.972 31.7033 128.033 31.8413 128.064 31.964C128.125 32.056 128.186 32.1633 128.248 32.286C128.309 32.4087 128.432 32.654 128.616 33.022C128.861 33.482 128.861 33.942 128.616 34.402C128.37 34.862 128.002 35.092 127.512 35.092H117.668C117.177 35.092 116.809 34.862 116.564 34.402C116.318 33.942 116.318 33.482 116.564 33.022L117.76 30.63C117.852 30.4153 117.898 30.1853 117.898 29.94V16.14C117.898 15.9253 117.852 15.6953 117.76 15.45L116.564 13.058C116.472 12.8433 116.426 12.6133 116.426 12.368C116.426 12 116.533 11.678 116.748 11.402C116.993 11.126 117.3 10.988 117.668 10.988H125.534C126.024 10.988 126.438 11.1567 126.776 11.494C127.113 11.8313 127.282 12.2453 127.282 12.736L127.19 12.966ZM163.357 29.894V16.094C163.357 15.8793 163.311 15.6493 163.219 15.404L162.023 13.012C161.777 12.552 161.777 12.092 162.023 11.632C162.268 11.172 162.636 10.942 163.127 10.942H170.993C171.483 10.942 171.897 11.1107 172.235 11.448C172.572 11.7853 172.741 12.1993 172.741 12.69V29.848C172.741 30.0933 172.787 30.3233 172.879 30.538L174.075 32.93C174.32 33.39 174.32 33.85 174.075 34.31C173.829 34.77 173.461 35 172.971 35H163.127C162.636 35 162.268 34.77 162.023 34.31C161.777 33.85 161.777 33.39 162.023 32.93L163.219 30.538C163.311 30.3233 163.357 30.0933 163.357 29.848V29.894ZM168.279 0.729997C168.923 0.729997 169.536 0.852664 170.119 1.098C170.701 1.31267 171.207 1.61933 171.637 2.018C172.066 2.41666 172.403 2.892 172.649 3.444C172.894 3.96533 173.017 4.51733 173.017 5.1C173.017 5.71333 172.894 6.28066 172.649 6.802C172.403 7.32333 172.066 7.78333 171.637 8.182C171.207 8.58066 170.701 8.90266 170.119 9.148C169.536 9.36267 168.923 9.47 168.279 9.47C167.635 9.47 167.021 9.36267 166.439 9.148C165.856 8.90266 165.35 8.58066 164.921 8.182C164.491 7.78333 164.154 7.32333 163.909 6.802C163.663 6.28066 163.541 5.71333 163.541 5.1C163.541 4.51733 163.663 3.96533 163.909 3.444C164.154 2.892 164.491 2.41666 164.921 2.018C165.35 1.61933 165.856 1.31267 166.439 1.098C167.021 0.852664 167.635 0.729997 168.279 0.729997ZM199.798 13.196C200.258 13.5947 200.534 14.07 200.626 14.622C200.718 15.1433 200.656 15.6493 200.442 16.14C200.258 16.6307 199.951 17.06 199.522 17.428C199.092 17.796 198.586 18.026 198.004 18.118C197.452 18.1793 196.838 18.0567 196.164 17.75C195.52 17.4127 194.876 16.7993 194.232 15.91C193.956 15.542 193.695 15.2047 193.45 14.898C193.204 14.5607 192.959 14.2847 192.714 14.07C192.1 13.5793 191.456 13.334 190.782 13.334C190.138 13.334 189.586 13.5027 189.126 13.84C188.819 14.0547 188.589 14.3307 188.436 14.668C188.282 15.0053 188.252 15.3733 188.344 15.772C188.436 16.1707 188.666 16.6 189.034 17.06C189.432 17.4893 190 17.934 190.736 18.394C191.717 18.9767 192.836 19.5593 194.094 20.142C195.382 20.7247 196.578 21.3993 197.682 22.166C198.786 22.9327 199.675 23.8373 200.35 24.88C201.024 25.9227 201.254 27.18 201.04 28.652C200.886 29.6027 200.549 30.4613 200.028 31.228C199.506 31.9947 198.847 32.654 198.05 33.206C197.498 33.574 196.854 33.9113 196.118 34.218C195.382 34.5247 194.584 34.7853 193.726 35C192.867 35.2147 191.947 35.3833 190.966 35.506C190.015 35.6287 189.064 35.69 188.114 35.69C186.979 35.69 185.86 35.6133 184.756 35.46C183.652 35.3373 182.624 35.1227 181.674 34.816C180.723 34.4787 179.88 34.0647 179.144 33.574C178.438 33.0833 177.902 32.516 177.534 31.872C177.104 31.1053 176.92 30.4 176.982 29.756C177.043 29.112 177.273 28.56 177.672 28.1C178.07 27.64 178.561 27.2873 179.144 27.042C179.757 26.7967 180.37 26.6893 180.984 26.72C181.628 26.7507 182.226 26.9347 182.778 27.272C183.33 27.5787 183.744 28.0847 184.02 28.79L184.158 29.342C184.495 30.3847 184.97 31.1667 185.584 31.688C186.228 32.1787 186.856 32.47 187.47 32.562C188.114 32.654 188.696 32.5773 189.218 32.332C189.739 32.0867 190.076 31.734 190.23 31.274C190.414 30.814 190.337 30.2773 190 29.664C189.662 29.0507 188.972 28.422 187.93 27.778C186.948 27.1953 185.814 26.6127 184.526 26.03C183.268 25.4473 182.088 24.7727 180.984 24.006C179.88 23.2393 178.975 22.3347 178.27 21.292C177.595 20.2493 177.38 18.992 177.626 17.52C177.779 16.5693 178.116 15.7107 178.638 14.944C179.159 14.1773 179.818 13.518 180.616 12.966C182.18 11.8927 183.882 11.1873 185.722 10.85C187.592 10.482 189.432 10.3593 191.242 10.482C191.886 10.5433 192.591 10.6353 193.358 10.758C194.124 10.8807 194.891 11.0493 195.658 11.264C196.455 11.448 197.191 11.6933 197.866 12C198.571 12.3067 199.169 12.6593 199.66 13.058L199.798 13.196Z" fill="white"/>
<path d="M22.7 47.06C22.376 47.06 22.072 47 21.788 46.88C21.508 46.756 21.262 46.586 21.05 46.37C20.842 46.15 20.678 45.894 20.558 45.602C20.442 45.31 20.384 44.994 20.384 44.654C20.384 44.318 20.442 44.006 20.558 43.718C20.678 43.426 20.842 43.172 21.05 42.956C21.262 42.736 21.508 42.564 21.788 42.44C22.068 42.316 22.372 42.254 22.7 42.254C23.008 42.254 23.272 42.294 23.492 42.374C23.716 42.454 23.94 42.586 24.164 42.77C24.196 42.794 24.22 42.82 24.236 42.848C24.256 42.872 24.268 42.898 24.272 42.926C24.28 42.95 24.284 42.98 24.284 43.016C24.284 43.092 24.256 43.156 24.2 43.208C24.148 43.26 24.082 43.288 24.002 43.292C23.926 43.296 23.854 43.27 23.786 43.214C23.638 43.086 23.484 42.988 23.324 42.92C23.168 42.852 22.96 42.818 22.7 42.818C22.464 42.818 22.242 42.866 22.034 42.962C21.826 43.058 21.642 43.19 21.482 43.358C21.326 43.526 21.204 43.722 21.116 43.946C21.028 44.166 20.984 44.402 20.984 44.654C20.984 44.91 21.028 45.15 21.116 45.374C21.204 45.594 21.326 45.788 21.482 45.956C21.642 46.124 21.826 46.256 22.034 46.352C22.242 46.444 22.464 46.49 22.7 46.49C22.904 46.49 23.096 46.456 23.276 46.388C23.46 46.316 23.636 46.218 23.804 46.094C23.876 46.042 23.946 46.02 24.014 46.028C24.086 46.032 24.146 46.06 24.194 46.112C24.242 46.16 24.266 46.228 24.266 46.316C24.266 46.356 24.258 46.396 24.242 46.436C24.23 46.472 24.206 46.506 24.17 46.538C23.958 46.714 23.728 46.846 23.48 46.934C23.232 47.018 22.972 47.06 22.7 47.06ZM24.266 46.316L23.666 46.196V45.122H22.838C22.75 45.122 22.676 45.096 22.616 45.044C22.556 44.992 22.526 44.926 22.526 44.846C22.526 44.766 22.556 44.7 22.616 44.648C22.676 44.596 22.75 44.57 22.838 44.57H23.96C24.052 44.57 24.126 44.6 24.182 44.66C24.238 44.716 24.266 44.79 24.266 44.882V46.316ZM31.9961 47C31.9081 47 31.8341 46.97 31.7741 46.91C31.7141 46.85 31.6841 46.776 31.6841 46.688V42.626C31.6841 42.534 31.7141 42.46 31.7741 42.404C31.8341 42.344 31.9081 42.314 31.9961 42.314H34.7081C34.8001 42.314 34.8741 42.342 34.9301 42.398C34.9861 42.45 35.0141 42.52 35.0141 42.608C35.0141 42.692 34.9861 42.76 34.9301 42.812C34.8741 42.864 34.8001 42.89 34.7081 42.89H32.3081V44.348H34.0301C34.1221 44.348 34.1961 44.376 34.2521 44.432C34.3081 44.484 34.3361 44.552 34.3361 44.636C34.3361 44.72 34.3081 44.79 34.2521 44.846C34.1961 44.898 34.1221 44.924 34.0301 44.924H32.3081V46.424H34.7081C34.8001 46.424 34.8741 46.45 34.9301 46.502C34.9861 46.554 35.0141 46.622 35.0141 46.706C35.0141 46.794 34.9861 46.866 34.9301 46.922C34.8741 46.974 34.8001 47 34.7081 47H31.9961ZM43.7932 47.06C43.5372 47.06 43.2932 47.02 43.0612 46.94C42.8292 46.86 42.6272 46.748 42.4552 46.604C42.2832 46.46 42.1572 46.294 42.0772 46.106C42.0372 46.022 42.0372 45.944 42.0772 45.872C42.1212 45.8 42.1932 45.754 42.2932 45.734C42.3652 45.718 42.4352 45.73 42.5032 45.77C42.5752 45.806 42.6292 45.862 42.6652 45.938C42.7132 46.038 42.7912 46.13 42.8992 46.214C43.0112 46.298 43.1452 46.366 43.3012 46.418C43.4572 46.47 43.6212 46.496 43.7932 46.496C43.9852 46.496 44.1612 46.466 44.3212 46.406C44.4852 46.346 44.6172 46.26 44.7172 46.148C44.8172 46.032 44.8672 45.89 44.8672 45.722C44.8672 45.51 44.7832 45.32 44.6152 45.152C44.4512 44.984 44.1792 44.88 43.7992 44.84C43.3032 44.792 42.9132 44.646 42.6292 44.402C42.3452 44.158 42.2032 43.856 42.2032 43.496C42.2032 43.232 42.2772 43.008 42.4252 42.824C42.5732 42.64 42.7732 42.5 43.0252 42.404C43.2812 42.308 43.5652 42.26 43.8772 42.26C44.1212 42.26 44.3332 42.294 44.5132 42.362C44.6972 42.43 44.8572 42.524 44.9932 42.644C45.1292 42.764 45.2472 42.906 45.3472 43.07C45.4032 43.158 45.4252 43.242 45.4132 43.322C45.4052 43.398 45.3672 43.458 45.2992 43.502C45.2232 43.55 45.1412 43.56 45.0532 43.532C44.9652 43.504 44.8992 43.452 44.8552 43.376C44.7912 43.26 44.7132 43.162 44.6212 43.082C44.5292 43.002 44.4212 42.94 44.2972 42.896C44.1732 42.848 44.0272 42.824 43.8592 42.824C43.5632 42.82 43.3152 42.876 43.1152 42.992C42.9152 43.104 42.8152 43.278 42.8152 43.514C42.8152 43.634 42.8452 43.75 42.9052 43.862C42.9692 43.97 43.0832 44.064 43.2472 44.144C43.4152 44.224 43.6552 44.28 43.9672 44.312C44.4432 44.36 44.8132 44.506 45.0772 44.75C45.3452 44.99 45.4792 45.308 45.4792 45.704C45.4792 45.932 45.4312 46.13 45.3352 46.298C45.2432 46.466 45.1172 46.608 44.9572 46.724C44.8012 46.836 44.6212 46.92 44.4172 46.976C44.2172 47.032 44.0092 47.06 43.7932 47.06ZM54.0019 47C53.9139 47 53.8399 46.97 53.7799 46.91C53.7199 46.85 53.6899 46.776 53.6899 46.688V42.314H54.3139V46.688C54.3139 46.776 54.2839 46.85 54.2239 46.91C54.1639 46.97 54.0899 47 54.0019 47ZM52.3939 42.89C52.3099 42.89 52.2399 42.864 52.1839 42.812C52.1319 42.756 52.1059 42.686 52.1059 42.602C52.1059 42.518 52.1319 42.45 52.1839 42.398C52.2399 42.342 52.3099 42.314 52.3939 42.314H55.6039C55.6879 42.314 55.7559 42.342 55.8079 42.398C55.8639 42.45 55.8919 42.518 55.8919 42.602C55.8919 42.686 55.8639 42.756 55.8079 42.812C55.7559 42.864 55.6879 42.89 55.6039 42.89H52.3939ZM62.3362 47C62.2242 47 62.1382 46.952 62.0782 46.856C62.0182 46.76 62.0122 46.658 62.0602 46.55L63.7462 42.524C63.8062 42.384 63.9042 42.314 64.0402 42.314C64.1842 42.314 64.2822 42.384 64.3342 42.524L66.0262 46.562C66.0702 46.674 66.0622 46.776 66.0022 46.868C65.9462 46.956 65.8602 47 65.7442 47C65.6842 47 65.6262 46.984 65.5702 46.952C65.5182 46.916 65.4802 46.868 65.4562 46.808L63.9682 43.112H64.1362L62.6242 46.808C62.5962 46.872 62.5542 46.92 62.4982 46.952C62.4462 46.984 62.3922 47 62.3362 47ZM62.6542 45.968L62.8942 45.452H65.2462L65.4862 45.968H62.6542ZM64.4542 41.828C64.3502 41.828 64.2562 41.806 64.1722 41.762C64.0882 41.714 64.0082 41.654 63.9322 41.582C63.8842 41.538 63.8442 41.504 63.8122 41.48C63.7802 41.452 63.7442 41.438 63.7042 41.438C63.6642 41.438 63.6302 41.454 63.6022 41.486C63.5742 41.514 63.5442 41.554 63.5122 41.606C63.4762 41.666 63.4262 41.71 63.3622 41.738C63.2982 41.762 63.2322 41.76 63.1642 41.732C63.0962 41.7 63.0482 41.652 63.0202 41.588C62.9962 41.52 63.0042 41.452 63.0442 41.384C63.1282 41.232 63.2202 41.122 63.3202 41.054C63.4202 40.982 63.5322 40.946 63.6562 40.946C63.7962 40.946 63.9062 40.98 63.9862 41.048C64.0662 41.112 64.1322 41.166 64.1842 41.21C64.2322 41.25 64.2702 41.278 64.2982 41.294C64.3302 41.31 64.3602 41.318 64.3882 41.318C64.4322 41.318 64.4762 41.288 64.5202 41.228C64.5642 41.164 64.6182 41.118 64.6822 41.09C64.7462 41.062 64.8122 41.062 64.8802 41.09C64.9562 41.126 65.0062 41.178 65.0302 41.246C65.0542 41.314 65.0442 41.382 65.0002 41.45C64.9202 41.582 64.8362 41.678 64.7482 41.738C64.6602 41.798 64.5622 41.828 64.4542 41.828ZM75.2097 47.06C74.8577 47.06 74.5357 47.002 74.2437 46.886C73.9517 46.766 73.6997 46.6 73.4877 46.388C73.2797 46.172 73.1177 45.918 73.0017 45.626C72.8857 45.33 72.8277 45.006 72.8277 44.654C72.8277 44.302 72.8857 43.98 73.0017 43.688C73.1177 43.396 73.2797 43.144 73.4877 42.932C73.6997 42.716 73.9517 42.55 74.2437 42.434C74.5357 42.314 74.8577 42.254 75.2097 42.254C75.5617 42.254 75.8817 42.314 76.1697 42.434C76.4617 42.55 76.7137 42.716 76.9257 42.932C77.1377 43.144 77.3017 43.396 77.4177 43.688C77.5337 43.98 77.5917 44.302 77.5917 44.654C77.5917 45.006 77.5337 45.33 77.4177 45.626C77.3017 45.918 77.1377 46.172 76.9257 46.388C76.7137 46.6 76.4617 46.766 76.1697 46.886C75.8817 47.002 75.5617 47.06 75.2097 47.06ZM75.2097 46.496C75.4697 46.496 75.7077 46.45 75.9237 46.358C76.1437 46.262 76.3337 46.132 76.4937 45.968C76.6537 45.8 76.7757 45.604 76.8597 45.38C76.9477 45.156 76.9917 44.914 76.9917 44.654C76.9917 44.394 76.9477 44.152 76.8597 43.928C76.7757 43.704 76.6537 43.51 76.4937 43.346C76.3337 43.178 76.1437 43.048 75.9237 42.956C75.7077 42.864 75.4697 42.818 75.2097 42.818C74.9497 42.818 74.7097 42.864 74.4897 42.956C74.2737 43.048 74.0857 43.178 73.9257 43.346C73.7697 43.51 73.6477 43.704 73.5597 43.928C73.4717 44.152 73.4277 44.394 73.4277 44.654C73.4277 44.914 73.4717 45.156 73.5597 45.38C73.6477 45.604 73.7697 45.8 73.9257 45.968C74.0857 46.132 74.2737 46.262 74.4897 46.358C74.7097 46.45 74.9497 46.496 75.2097 46.496ZM93.479 47C93.391 47 93.317 46.97 93.257 46.91C93.197 46.85 93.167 46.776 93.167 46.688V42.626C93.167 42.534 93.197 42.46 93.257 42.404C93.317 42.344 93.391 42.314 93.479 42.314H94.679C94.979 42.314 95.245 42.38 95.477 42.512C95.709 42.644 95.889 42.828 96.017 43.064C96.149 43.296 96.215 43.564 96.215 43.868C96.215 44.16 96.149 44.42 96.017 44.648C95.889 44.876 95.709 45.054 95.477 45.182C95.245 45.31 94.979 45.374 94.679 45.374H93.791V46.688C93.791 46.776 93.761 46.85 93.701 46.91C93.645 46.97 93.571 47 93.479 47ZM93.791 44.798H94.679C94.863 44.798 95.025 44.758 95.165 44.678C95.305 44.598 95.415 44.488 95.495 44.348C95.575 44.208 95.615 44.048 95.615 43.868C95.615 43.676 95.575 43.508 95.495 43.364C95.415 43.216 95.305 43.1 95.165 43.016C95.025 42.932 94.863 42.89 94.679 42.89H93.791V44.798ZM102.958 47C102.846 47 102.76 46.952 102.7 46.856C102.64 46.76 102.634 46.658 102.682 46.55L104.368 42.524C104.428 42.384 104.526 42.314 104.662 42.314C104.806 42.314 104.904 42.384 104.956 42.524L106.648 46.562C106.692 46.674 106.684 46.776 106.624 46.868C106.568 46.956 106.482 47 106.366 47C106.306 47 106.248 46.984 106.192 46.952C106.14 46.916 106.102 46.868 106.078 46.808L104.59 43.112H104.758L103.246 46.808C103.218 46.872 103.176 46.92 103.12 46.952C103.068 46.984 103.014 47 102.958 47ZM103.276 45.968L103.516 45.452H105.868L106.108 45.968H103.276ZM114.094 47C114.006 47 113.932 46.97 113.872 46.91C113.812 46.85 113.782 46.776 113.782 46.688V42.626C113.782 42.534 113.812 42.46 113.872 42.404C113.932 42.344 114.006 42.314 114.094 42.314H115.174C115.474 42.314 115.74 42.378 115.972 42.506C116.204 42.63 116.384 42.802 116.512 43.022C116.644 43.242 116.71 43.498 116.71 43.79C116.71 44.062 116.644 44.304 116.512 44.516C116.384 44.728 116.204 44.894 115.972 45.014C115.74 45.134 115.474 45.194 115.174 45.194H114.406V46.688C114.406 46.776 114.376 46.85 114.316 46.91C114.26 46.97 114.186 47 114.094 47ZM116.584 47C116.528 47 116.476 46.988 116.428 46.964C116.384 46.94 116.346 46.902 116.314 46.85L115.234 45.11L115.84 44.936L116.824 46.52C116.896 46.636 116.906 46.746 116.854 46.85C116.802 46.95 116.712 47 116.584 47ZM114.406 44.618H115.174C115.358 44.618 115.52 44.584 115.66 44.516C115.8 44.444 115.91 44.346 115.99 44.222C116.07 44.094 116.11 43.95 116.11 43.79C116.11 43.614 116.07 43.458 115.99 43.322C115.91 43.186 115.8 43.08 115.66 43.004C115.52 42.928 115.358 42.89 115.174 42.89H114.406V44.618ZM123.807 47C123.695 47 123.609 46.952 123.549 46.856C123.489 46.76 123.483 46.658 123.531 46.55L125.217 42.524C125.277 42.384 125.375 42.314 125.511 42.314C125.655 42.314 125.753 42.384 125.805 42.524L127.497 46.562C127.541 46.674 127.533 46.776 127.473 46.868C127.417 46.956 127.331 47 127.215 47C127.155 47 127.097 46.984 127.041 46.952C126.989 46.916 126.951 46.868 126.927 46.808L125.439 43.112H125.607L124.095 46.808C124.067 46.872 124.025 46.92 123.969 46.952C123.917 46.984 123.863 47 123.807 47ZM124.125 45.968L124.365 45.452H126.717L126.957 45.968H124.125ZM144.976 47.06C144.624 47.06 144.302 47.002 144.01 46.886C143.718 46.766 143.466 46.6 143.254 46.388C143.046 46.172 142.884 45.918 142.768 45.626C142.652 45.33 142.594 45.006 142.594 44.654C142.594 44.302 142.652 43.98 142.768 43.688C142.884 43.396 143.046 43.144 143.254 42.932C143.466 42.716 143.718 42.55 144.01 42.434C144.302 42.314 144.624 42.254 144.976 42.254C145.328 42.254 145.648 42.314 145.936 42.434C146.228 42.55 146.48 42.716 146.692 42.932C146.904 43.144 147.068 43.396 147.184 43.688C147.3 43.98 147.358 44.302 147.358 44.654C147.358 45.006 147.3 45.33 147.184 45.626C147.068 45.918 146.904 46.172 146.692 46.388C146.48 46.6 146.228 46.766 145.936 46.886C145.648 47.002 145.328 47.06 144.976 47.06ZM144.976 46.496C145.236 46.496 145.474 46.45 145.69 46.358C145.91 46.262 146.1 46.132 146.26 45.968C146.42 45.8 146.542 45.604 146.626 45.38C146.714 45.156 146.758 44.914 146.758 44.654C146.758 44.394 146.714 44.152 146.626 43.928C146.542 43.704 146.42 43.51 146.26 43.346C146.1 43.178 145.91 43.048 145.69 42.956C145.474 42.864 145.236 42.818 144.976 42.818C144.716 42.818 144.476 42.864 144.256 42.956C144.04 43.048 143.852 43.178 143.692 43.346C143.536 43.51 143.414 43.704 143.326 43.928C143.238 44.152 143.194 44.394 143.194 44.654C143.194 44.914 143.238 45.156 143.326 45.38C143.414 45.604 143.536 45.8 143.692 45.968C143.852 46.132 144.04 46.262 144.256 46.358C144.476 46.45 144.716 46.496 144.976 46.496ZM155.061 47C154.973 47 154.899 46.97 154.839 46.91C154.783 46.85 154.755 46.776 154.755 46.688V42.626C154.755 42.534 154.783 42.46 154.839 42.404C154.899 42.344 154.973 42.314 155.061 42.314C155.157 42.314 155.237 42.352 155.301 42.428L157.917 45.908V42.626C157.917 42.534 157.947 42.46 158.007 42.404C158.067 42.344 158.141 42.314 158.229 42.314C158.321 42.314 158.395 42.344 158.451 42.404C158.507 42.46 158.535 42.534 158.535 42.626V46.688C158.535 46.776 158.507 46.85 158.451 46.91C158.395 46.97 158.321 47 158.229 47C158.189 47 158.145 46.992 158.097 46.976C158.053 46.956 158.017 46.928 157.989 46.892L155.373 43.412V46.688C155.373 46.776 155.343 46.85 155.283 46.91C155.227 46.97 155.153 47 155.061 47ZM168.256 47.06C167.932 47.06 167.628 47 167.344 46.88C167.064 46.756 166.818 46.586 166.606 46.37C166.398 46.15 166.234 45.894 166.114 45.602C165.998 45.31 165.94 44.994 165.94 44.654C165.94 44.318 165.998 44.006 166.114 43.718C166.234 43.426 166.398 43.172 166.606 42.956C166.818 42.736 167.064 42.564 167.344 42.44C167.624 42.316 167.928 42.254 168.256 42.254C168.564 42.254 168.828 42.294 169.048 42.374C169.272 42.454 169.496 42.586 169.72 42.77C169.752 42.794 169.776 42.82 169.792 42.848C169.812 42.872 169.824 42.898 169.828 42.926C169.836 42.95 169.84 42.98 169.84 43.016C169.84 43.092 169.812 43.156 169.756 43.208C169.704 43.26 169.638 43.288 169.558 43.292C169.482 43.296 169.41 43.27 169.342 43.214C169.194 43.086 169.04 42.988 168.88 42.92C168.724 42.852 168.516 42.818 168.256 42.818C168.02 42.818 167.798 42.866 167.59 42.962C167.382 43.058 167.198 43.19 167.038 43.358C166.882 43.526 166.76 43.722 166.672 43.946C166.584 44.166 166.54 44.402 166.54 44.654C166.54 44.91 166.584 45.15 166.672 45.374C166.76 45.594 166.882 45.788 167.038 45.956C167.198 46.124 167.382 46.256 167.59 46.352C167.798 46.444 168.02 46.49 168.256 46.49C168.46 46.49 168.652 46.456 168.832 46.388C169.016 46.316 169.192 46.218 169.36 46.094C169.432 46.042 169.502 46.02 169.57 46.028C169.642 46.032 169.702 46.06 169.75 46.112C169.798 46.16 169.822 46.228 169.822 46.316C169.822 46.356 169.814 46.396 169.798 46.436C169.786 46.472 169.762 46.506 169.726 46.538C169.514 46.714 169.284 46.846 169.036 46.934C168.788 47.018 168.528 47.06 168.256 47.06ZM169.822 46.316L169.222 46.196V45.122H168.394C168.306 45.122 168.232 45.096 168.172 45.044C168.112 44.992 168.082 44.926 168.082 44.846C168.082 44.766 168.112 44.7 168.172 44.648C168.232 44.596 168.306 44.57 168.394 44.57H169.516C169.608 44.57 169.682 44.6 169.738 44.66C169.794 44.716 169.822 44.79 169.822 44.882V46.316ZM176.814 43.988C176.75 43.988 176.7 43.96 176.664 43.904C176.632 43.844 176.63 43.782 176.658 43.718C176.73 43.554 176.774 43.42 176.79 43.316C176.806 43.212 176.806 43.122 176.79 43.046C176.778 42.97 176.762 42.898 176.742 42.83C176.722 42.758 176.712 42.678 176.712 42.59C176.712 42.486 176.748 42.4 176.82 42.332C176.892 42.264 176.978 42.23 177.078 42.23C177.202 42.23 177.298 42.282 177.366 42.386C177.434 42.49 177.468 42.62 177.468 42.776C177.468 42.88 177.446 43 177.402 43.136C177.358 43.272 177.302 43.406 177.234 43.538C177.17 43.666 177.1 43.774 177.024 43.862C176.948 43.946 176.878 43.988 176.814 43.988ZM186.279 47.06C186.023 47.06 185.779 47.02 185.547 46.94C185.315 46.86 185.113 46.748 184.941 46.604C184.769 46.46 184.643 46.294 184.563 46.106C184.523 46.022 184.523 45.944 184.563 45.872C184.607 45.8 184.679 45.754 184.779 45.734C184.851 45.718 184.921 45.73 184.989 45.77C185.061 45.806 185.115 45.862 185.151 45.938C185.199 46.038 185.277 46.13 185.385 46.214C185.497 46.298 185.631 46.366 185.787 46.418C185.943 46.47 186.107 46.496 186.279 46.496C186.471 46.496 186.647 46.466 186.807 46.406C186.971 46.346 187.103 46.26 187.203 46.148C187.303 46.032 187.353 45.89 187.353 45.722C187.353 45.51 187.269 45.32 187.101 45.152C186.937 44.984 186.665 44.88 186.285 44.84C185.789 44.792 185.399 44.646 185.115 44.402C184.831 44.158 184.689 43.856 184.689 43.496C184.689 43.232 184.763 43.008 184.911 42.824C185.059 42.64 185.259 42.5 185.511 42.404C185.767 42.308 186.051 42.26 186.363 42.26C186.607 42.26 186.819 42.294 186.999 42.362C187.183 42.43 187.343 42.524 187.479 42.644C187.615 42.764 187.733 42.906 187.833 43.07C187.889 43.158 187.911 43.242 187.899 43.322C187.891 43.398 187.853 43.458 187.785 43.502C187.709 43.55 187.627 43.56 187.539 43.532C187.451 43.504 187.385 43.452 187.341 43.376C187.277 43.26 187.199 43.162 187.107 43.082C187.015 43.002 186.907 42.94 186.783 42.896C186.659 42.848 186.513 42.824 186.345 42.824C186.049 42.82 185.801 42.876 185.601 42.992C185.401 43.104 185.301 43.278 185.301 43.514C185.301 43.634 185.331 43.75 185.391 43.862C185.455 43.97 185.569 44.064 185.733 44.144C185.901 44.224 186.141 44.28 186.453 44.312C186.929 44.36 187.299 44.506 187.563 44.75C187.831 44.99 187.965 45.308 187.965 45.704C187.965 45.932 187.917 46.13 187.821 46.298C187.729 46.466 187.603 46.608 187.443 46.724C187.287 46.836 187.107 46.92 186.903 46.976C186.703 47.032 186.495 47.06 186.279 47.06Z" fill="black"/>
</g>
<defs>
<filter id="filter0_d_5473_134" x="0.781982" y="0.730011" width="204.58" height="54.33" filterUnits="userSpaceOnUse" color-interpolation-filters="sRGB">
<feFlood flood-opacity="0" result="BackgroundImageFix"/>
<feColorMatrix in="SourceAlpha" type="matrix" values="0 0 0 0 0 0 0 0 0 0 0 0 0 0 0 0 0 0 127 0" result="hardAlpha"/>
<feOffset dy="4"/>
<feGaussianBlur stdDeviation="2"/>
<feComposite in2="hardAlpha" operator="out"/>
<feColorMatrix type="matrix" values="0 0 0 0 0 0 0 0 0 0 0 0 0 0 0 0 0 0 0.25 0"/>
<feBlend mode="normal" in2="BackgroundImageFix" result="effect1_dropShadow_5473_134"/>
<feBlend mode="normal" in="SourceGraphic" in2="effect1_dropShadow_5473_134" result="shape"/>
</filter>
</defs>
</svg>
