<svg width="337" height="81" viewBox="0 0 337 81" fill="none" xmlns="http://www.w3.org/2000/svg">
<path d="M60.138 55.724C60.45 56.504 60.398 57.284 59.982 58.064C59.566 58.792 58.942 59.156 58.11 59.156H40.482C39.858 59.156 39.312 58.922 38.844 58.454C38.428 57.986 38.22 57.414 38.22 56.738V51.122L26.442 24.134L25.428 21.794C25.272 21.43 24.986 21.248 24.57 21.248C24.206 21.196 23.894 21.378 23.634 21.794L22.542 24.056L19.578 30.062C18.798 31.674 18.772 33.338 19.5 35.054L28.548 55.724C28.86 56.504 28.808 57.284 28.392 58.064C27.976 58.792 27.352 59.156 26.52 59.156H8.892C6.448 59.156 4.576 58.012 3.276 55.724C1.976 53.54 1.82 51.226 2.808 48.782V48.548L4.446 45.194L19.188 15.086L19.812 13.682L20.436 12.2C20.748 11.472 20.748 10.744 20.436 10.016L19.5 8.066C19.084 7.286 19.084 6.48 19.5 5.648C19.916 4.816 20.54 4.4 21.372 4.4H40.56C41.392 4.4 42.016 4.816 42.432 5.648C42.848 6.48 42.848 7.286 42.432 8.066L41.496 10.016C41.184 10.744 41.184 11.472 41.496 12.2L42.12 13.682L60.06 55.49L60.138 55.724ZM89.4489 27.722C89.1889 27.098 88.7469 26.682 88.1229 26.474C87.4989 26.266 86.8749 26.292 86.2509 26.552C85.7309 26.812 85.2629 27.202 84.8469 27.722C84.4829 28.19 84.1709 28.736 83.9109 29.36C83.6509 29.984 83.4429 30.608 83.2869 31.232C83.1829 31.804 83.1309 32.298 83.1309 32.714V50.42C83.1309 50.68 83.2089 51.044 83.3649 51.512C83.5729 51.98 83.7809 52.474 83.9889 52.994C84.2489 53.462 84.5089 53.956 84.7689 54.476C85.0289 54.944 85.2369 55.334 85.3929 55.646C85.8089 56.426 85.8089 57.206 85.3929 57.986C84.9769 58.766 84.3529 59.156 83.5209 59.156H66.8289C65.9969 59.156 65.3729 58.766 64.9569 57.986C64.5409 57.206 64.5409 56.426 64.9569 55.646C65.1129 55.334 65.3209 54.944 65.5809 54.476C65.8409 53.956 66.0749 53.462 66.2829 52.994C66.5429 52.474 66.7509 51.98 66.9069 51.512C67.1149 51.044 67.2189 50.68 67.2189 50.42V27.02C67.2189 26.76 67.1149 26.396 66.9069 25.928C66.7509 25.46 66.5429 24.992 66.2829 24.524C66.0749 24.004 65.8409 23.51 65.5809 23.042C65.3209 22.522 65.1129 22.106 64.9569 21.794C64.5409 21.014 64.5409 20.234 64.9569 19.454C65.3729 18.674 65.9969 18.284 66.8289 18.284H80.2449C81.0769 18.336 81.7789 18.648 82.3509 19.22C82.9229 19.792 83.2089 20.494 83.2089 21.326C84.8729 20.286 86.7189 19.376 88.7469 18.596C90.7749 17.816 92.7769 17.478 94.7529 17.582C95.6889 17.634 96.5989 17.868 97.4829 18.284C98.4189 18.648 99.2249 19.142 99.9009 19.766C100.629 20.39 101.201 21.144 101.617 22.028C102.033 22.86 102.241 23.796 102.241 24.836C102.241 26.656 101.695 28.112 100.603 29.204C99.5629 30.296 98.3409 30.998 96.9369 31.31C95.5329 31.622 94.1029 31.492 92.6469 30.92C91.2429 30.296 90.1769 29.152 89.4489 27.488V27.566V27.722ZM138.129 56.036C138.129 56.764 137.791 57.284 137.115 57.596C134.879 58.636 132.669 59.312 130.485 59.624C128.353 59.988 126.351 60.17 124.479 60.17C122.399 60.17 120.579 59.91 119.019 59.39C117.511 58.922 116.237 58.116 115.197 56.972C114.209 55.828 113.455 54.32 112.935 52.448C112.467 50.524 112.233 48.184 112.233 45.428V31.856V25.772C112.233 25.304 112.051 24.914 111.687 24.602C111.375 24.238 110.985 24.056 110.517 24.056H108.411C107.943 24.056 107.527 23.9 107.163 23.588C106.851 23.224 106.695 22.808 106.695 22.34V20C106.695 19.532 106.851 19.142 107.163 18.83C107.475 18.466 107.865 18.258 108.333 18.206C109.737 18.102 111.141 17.738 112.545 17.114C114.001 16.49 115.353 15.684 116.601 14.696C117.901 13.708 119.045 12.59 120.033 11.342C121.073 10.042 121.879 8.69 122.451 7.286C122.711 6.61 123.231 6.272 124.011 6.272H126.429C126.897 6.272 127.287 6.454 127.599 6.818C127.963 7.13 128.145 7.52 128.145 7.988V16.568C128.145 17.036 128.301 17.452 128.613 17.816C128.977 18.128 129.393 18.284 129.861 18.284H136.335C136.803 18.284 137.193 18.466 137.505 18.83C137.869 19.142 138.051 19.532 138.051 20V22.262C138.051 22.73 137.869 23.146 137.505 23.51C137.193 23.822 136.803 23.978 136.335 23.978H129.861C129.393 23.978 128.977 24.16 128.613 24.524C128.301 24.836 128.145 25.226 128.145 25.694V45.974C128.145 47.534 128.691 48.886 129.783 50.03C130.927 51.122 132.279 51.668 133.839 51.668C134.567 51.668 135.165 51.564 135.633 51.356C136.205 51.2 136.725 51.278 137.193 51.59C137.661 51.902 137.895 52.344 137.895 52.916V55.88L138.129 56.036ZM158.956 17.894C161.92 17.218 164.988 17.14 168.16 17.66C171.332 18.128 174.218 19.194 176.818 20.858C179.47 22.47 181.654 24.706 183.37 27.566C185.138 30.374 186.074 33.78 186.178 37.784V38.954C186.178 39.526 185.97 40.02 185.554 40.436C185.138 40.852 184.644 41.06 184.072 41.06H160.204C159.684 41.06 159.268 41.268 158.956 41.684C158.644 42.1 158.514 42.542 158.566 43.01C158.878 45.35 159.97 47.248 161.842 48.704C164.13 50.472 166.652 51.044 169.408 50.42L181.654 47.768C182.434 47.612 183.032 47.872 183.448 48.548C183.864 49.224 183.864 49.9 183.448 50.576C182.408 52.24 181.186 53.67 179.782 54.866C178.378 56.01 176.844 56.946 175.18 57.674C173.568 58.402 171.826 58.948 169.954 59.312C168.134 59.676 166.288 59.858 164.416 59.858H164.338H164.104H162.7H162.622H162.388C159.84 59.65 157.344 59.078 154.9 58.142C152.508 57.154 150.376 55.776 148.504 54.008C146.632 52.24 145.124 50.082 143.98 47.534C142.836 44.986 142.264 42.048 142.264 38.72C142.264 35.756 142.732 33.104 143.668 30.764C144.604 28.424 145.826 26.396 147.334 24.68C148.894 22.964 150.662 21.56 152.638 20.468C154.666 19.324 156.772 18.518 158.956 18.05V17.894ZM167.926 35.99C168.498 35.99 168.992 35.782 169.408 35.366C169.824 34.95 170.032 34.456 170.032 33.884V29.36C170.032 27.748 169.46 26.37 168.316 25.226C167.224 24.082 165.872 23.51 164.26 23.51C162.648 23.51 161.27 24.082 160.126 25.226C159.034 26.37 158.488 27.748 158.488 29.36V33.884C158.488 34.456 158.696 34.95 159.112 35.366C159.528 35.782 160.022 35.99 160.594 35.99H167.926ZM208.887 21.638C211.539 19.974 213.931 18.882 216.063 18.362C218.195 17.842 220.379 17.582 222.615 17.582C224.903 17.582 226.905 17.972 228.621 18.752C230.389 19.532 231.793 20.884 232.833 22.808C233.457 22.34 234.211 21.82 235.095 21.248C236.031 20.624 237.123 20.052 238.371 19.532C239.671 18.96 241.153 18.492 242.817 18.128C244.481 17.764 246.405 17.582 248.589 17.582C250.409 17.582 252.047 17.842 253.503 18.362C255.011 18.83 256.285 19.636 257.325 20.78C258.417 21.924 259.249 23.458 259.821 25.382C260.445 27.254 260.757 29.568 260.757 32.324C260.757 33.104 260.757 34.118 260.757 35.366C260.757 36.562 260.757 37.81 260.757 39.11C260.809 40.358 260.835 41.606 260.835 42.854C260.835 44.05 260.835 45.064 260.835 45.896V50.654C260.835 51.07 260.913 51.46 261.069 51.824L263.097 55.88C263.513 56.66 263.513 57.44 263.097 58.22C262.681 59 262.057 59.39 261.225 59.39H244.533C243.701 59.39 243.077 59 242.661 58.22C242.245 57.44 242.245 56.66 242.661 55.88C242.921 55.36 243.103 54.996 243.207 54.788C243.363 54.528 243.493 54.294 243.597 54.086C243.701 53.878 243.831 53.618 243.987 53.306C244.143 52.994 244.377 52.526 244.689 51.902C244.845 51.538 244.923 51.148 244.923 50.732C244.923 47.352 244.923 43.998 244.923 40.67C244.923 37.342 244.897 33.988 244.845 30.608C244.845 29.568 244.559 28.632 243.987 27.8C243.623 27.28 243.259 26.89 242.895 26.63C241.959 25.954 240.971 25.616 239.931 25.616C238.631 25.616 237.487 26.058 236.499 26.942C235.563 27.826 235.043 28.892 234.939 30.14V41.84V45.818V50.576C234.939 50.992 235.017 51.382 235.173 51.746L237.201 55.802C237.617 56.582 237.617 57.362 237.201 58.142C236.785 58.922 236.161 59.312 235.329 59.312H218.559C217.727 59.312 217.103 58.922 216.687 58.142C216.271 57.362 216.271 56.582 216.687 55.802L218.715 51.746C218.871 51.382 218.949 50.992 218.949 50.576V37.628V30.374C218.949 29.334 218.663 28.398 218.091 27.566C217.727 27.046 217.363 26.656 216.999 26.396C216.063 25.72 215.075 25.382 214.035 25.382C212.735 25.382 211.591 25.824 210.603 26.708C209.667 27.592 209.147 28.658 209.043 29.906V50.42C209.043 50.836 209.121 51.226 209.277 51.59C209.641 52.318 209.901 52.838 210.057 53.15C210.213 53.41 210.317 53.644 210.369 53.852C210.473 54.008 210.577 54.19 210.681 54.398C210.785 54.606 210.993 55.022 211.305 55.646C211.721 56.426 211.721 57.206 211.305 57.986C210.889 58.766 210.265 59.156 209.433 59.156H192.741C191.909 59.156 191.285 58.766 190.869 57.986C190.453 57.206 190.453 56.426 190.869 55.646L192.897 51.59C193.053 51.226 193.131 50.836 193.131 50.42V27.02C193.131 26.656 193.053 26.266 192.897 25.85L190.869 21.794C190.713 21.43 190.635 21.04 190.635 20.624C190.635 20 190.817 19.454 191.181 18.986C191.597 18.518 192.117 18.284 192.741 18.284H206.079C206.911 18.284 207.613 18.57 208.185 19.142C208.757 19.714 209.043 20.416 209.043 21.248L208.887 21.638ZM270.213 50.342V26.942C270.213 26.578 270.135 26.188 269.979 25.772L267.951 21.716C267.535 20.936 267.535 20.156 267.951 19.376C268.367 18.596 268.991 18.206 269.823 18.206H283.161C283.993 18.206 284.695 18.492 285.267 19.064C285.839 19.636 286.125 20.338 286.125 21.17V50.264C286.125 50.68 286.203 51.07 286.359 51.434L288.387 55.49C288.803 56.27 288.803 57.05 288.387 57.83C287.971 58.61 287.347 59 286.515 59H269.823C268.991 59 268.367 58.61 267.951 57.83C267.535 57.05 267.535 56.27 267.951 55.49L269.979 51.434C270.135 51.07 270.213 50.68 270.213 50.264V50.342ZM278.559 0.889995C279.651 0.889995 280.691 1.098 281.679 1.514C282.667 1.878 283.525 2.398 284.253 3.074C284.981 3.75 285.553 4.556 285.969 5.492C286.385 6.376 286.593 7.312 286.593 8.3C286.593 9.34 286.385 10.302 285.969 11.186C285.553 12.07 284.981 12.85 284.253 13.526C283.525 14.202 282.667 14.748 281.679 15.164C280.691 15.528 279.651 15.71 278.559 15.71C277.467 15.71 276.427 15.528 275.439 15.164C274.451 14.748 273.593 14.202 272.865 13.526C272.137 12.85 271.565 12.07 271.149 11.186C270.733 10.302 270.525 9.34 270.525 8.3C270.525 7.312 270.733 6.376 271.149 5.492C271.565 4.556 272.137 3.75 272.865 3.074C273.593 2.398 274.451 1.878 275.439 1.514C276.427 1.098 277.467 0.889995 278.559 0.889995ZM332.005 22.028C332.785 22.704 333.253 23.51 333.409 24.446C333.565 25.33 333.461 26.188 333.097 27.02C332.785 27.852 332.265 28.58 331.537 29.204C330.809 29.828 329.951 30.218 328.963 30.374C328.027 30.478 326.987 30.27 325.843 29.75C324.751 29.178 323.659 28.138 322.567 26.63C322.099 26.006 321.657 25.434 321.241 24.914C320.825 24.342 320.409 23.874 319.993 23.51C318.953 22.678 317.861 22.262 316.717 22.262C315.625 22.262 314.689 22.548 313.909 23.12C313.389 23.484 312.999 23.952 312.739 24.524C312.479 25.096 312.427 25.72 312.583 26.396C312.739 27.072 313.129 27.8 313.753 28.58C314.429 29.308 315.391 30.062 316.639 30.842C318.303 31.83 320.201 32.818 322.333 33.806C324.517 34.794 326.545 35.938 328.417 37.238C330.289 38.538 331.797 40.072 332.941 41.84C334.085 43.608 334.475 45.74 334.111 48.236C333.851 49.848 333.279 51.304 332.395 52.604C331.511 53.904 330.393 55.022 329.041 55.958C328.105 56.582 327.013 57.154 325.765 57.674C324.517 58.194 323.165 58.636 321.709 59C320.253 59.364 318.693 59.65 317.029 59.858C315.417 60.066 313.805 60.17 312.193 60.17C310.269 60.17 308.371 60.04 306.499 59.78C304.627 59.572 302.885 59.208 301.273 58.688C299.661 58.116 298.231 57.414 296.983 56.582C295.787 55.75 294.877 54.788 294.253 53.696C293.525 52.396 293.213 51.2 293.317 50.108C293.421 49.016 293.811 48.08 294.487 47.3C295.163 46.52 295.995 45.922 296.983 45.506C298.023 45.09 299.063 44.908 300.103 44.96C301.195 45.012 302.209 45.324 303.145 45.896C304.081 46.416 304.783 47.274 305.251 48.47L305.485 49.406C306.057 51.174 306.863 52.5 307.903 53.384C308.995 54.216 310.061 54.71 311.101 54.866C312.193 55.022 313.181 54.892 314.065 54.476C314.949 54.06 315.521 53.462 315.781 52.682C316.093 51.902 315.963 50.992 315.391 49.952C314.819 48.912 313.649 47.846 311.881 46.754C310.217 45.766 308.293 44.778 306.109 43.79C303.977 42.802 301.975 41.658 300.103 40.358C298.231 39.058 296.697 37.524 295.501 35.756C294.357 33.988 293.993 31.856 294.409 29.36C294.669 27.748 295.241 26.292 296.125 24.992C297.009 23.692 298.127 22.574 299.479 21.638C302.131 19.818 305.017 18.622 308.137 18.05C311.309 17.426 314.429 17.218 317.497 17.426C318.589 17.53 319.785 17.686 321.085 17.894C322.385 18.102 323.685 18.388 324.985 18.752C326.337 19.064 327.585 19.48 328.729 20C329.925 20.52 330.939 21.118 331.771 21.794L332.005 22.028Z" fill="#75CDDB"/>
<path d="M12.95 79.11C12.356 79.11 11.7987 79 11.278 78.78C10.7647 78.5527 10.3137 78.241 9.925 77.845C9.54367 77.4417 9.243 76.9723 9.023 76.437C8.81033 75.9017 8.704 75.3223 8.704 74.699C8.704 74.083 8.81033 73.511 9.023 72.983C9.243 72.4477 9.54367 71.982 9.925 71.586C10.3137 71.1827 10.7647 70.8673 11.278 70.64C11.7913 70.4127 12.3487 70.299 12.95 70.299C13.5147 70.299 13.9987 70.3723 14.402 70.519C14.8127 70.6657 15.2233 70.9077 15.634 71.245C15.6927 71.289 15.7367 71.3367 15.766 71.388C15.8027 71.432 15.8247 71.4797 15.832 71.531C15.8467 71.575 15.854 71.63 15.854 71.696C15.854 71.8353 15.8027 71.9527 15.7 72.048C15.6047 72.1433 15.4837 72.1947 15.337 72.202C15.1977 72.2093 15.0657 72.1617 14.941 72.059C14.6697 71.8243 14.3873 71.6447 14.094 71.52C13.808 71.3953 13.4267 71.333 12.95 71.333C12.5173 71.333 12.1103 71.421 11.729 71.597C11.3477 71.773 11.0103 72.015 10.717 72.323C10.431 72.631 10.2073 72.9903 10.046 73.401C9.88467 73.8043 9.804 74.237 9.804 74.699C9.804 75.1683 9.88467 75.6083 10.046 76.019C10.2073 76.4223 10.431 76.778 10.717 77.086C11.0103 77.394 11.3477 77.636 11.729 77.812C12.1103 77.9807 12.5173 78.065 12.95 78.065C13.324 78.065 13.676 78.0027 14.006 77.878C14.3433 77.746 14.666 77.5663 14.974 77.339C15.106 77.2437 15.2343 77.2033 15.359 77.218C15.491 77.2253 15.601 77.2767 15.689 77.372C15.777 77.46 15.821 77.5847 15.821 77.746C15.821 77.8193 15.8063 77.8927 15.777 77.966C15.755 78.032 15.711 78.0943 15.645 78.153C15.2563 78.4757 14.8347 78.7177 14.38 78.879C13.9253 79.033 13.4487 79.11 12.95 79.11ZM15.821 77.746L14.721 77.526V75.557H13.203C13.0417 75.557 12.906 75.5093 12.796 75.414C12.686 75.3187 12.631 75.1977 12.631 75.051C12.631 74.9043 12.686 74.7833 12.796 74.688C12.906 74.5927 13.0417 74.545 13.203 74.545H15.26C15.4287 74.545 15.5643 74.6 15.667 74.71C15.7697 74.8127 15.821 74.9483 15.821 75.117V77.746ZM29.9928 79C29.8314 79 29.6958 78.945 29.5858 78.835C29.4758 78.725 29.4208 78.5893 29.4208 78.428V70.981C29.4208 70.8123 29.4758 70.6767 29.5858 70.574C29.6958 70.464 29.8314 70.409 29.9928 70.409H34.9648C35.1334 70.409 35.2691 70.4603 35.3718 70.563C35.4744 70.6583 35.5258 70.7867 35.5258 70.948C35.5258 71.102 35.4744 71.2267 35.3718 71.322C35.2691 71.4173 35.1334 71.465 34.9648 71.465H30.5648V74.138H33.7218C33.8904 74.138 34.0261 74.1893 34.1288 74.292C34.2314 74.3873 34.2828 74.512 34.2828 74.666C34.2828 74.82 34.2314 74.9483 34.1288 75.051C34.0261 75.1463 33.8904 75.194 33.7218 75.194H30.5648V77.944H34.9648C35.1334 77.944 35.2691 77.9917 35.3718 78.087C35.4744 78.1823 35.5258 78.307 35.5258 78.461C35.5258 78.6223 35.4744 78.7543 35.3718 78.857C35.2691 78.9523 35.1334 79 34.9648 79H29.9928ZM51.6209 79.11C51.1516 79.11 50.7043 79.0367 50.2789 78.89C49.8536 78.7433 49.4833 78.538 49.1679 78.274C48.8526 78.01 48.6216 77.7057 48.4749 77.361C48.4016 77.207 48.4016 77.064 48.4749 76.932C48.5556 76.8 48.6876 76.7157 48.8709 76.679C49.0029 76.6497 49.1313 76.6717 49.2559 76.745C49.3879 76.811 49.4869 76.9137 49.5529 77.053C49.6409 77.2363 49.7839 77.405 49.9819 77.559C50.1873 77.713 50.4329 77.8377 50.7189 77.933C51.0049 78.0283 51.3056 78.076 51.6209 78.076C51.9729 78.076 52.2956 78.021 52.5889 77.911C52.8896 77.801 53.1316 77.6433 53.3149 77.438C53.4983 77.2253 53.5899 76.965 53.5899 76.657C53.5899 76.2683 53.4359 75.92 53.1279 75.612C52.8273 75.304 52.3286 75.1133 51.6319 75.04C50.7226 74.952 50.0076 74.6843 49.4869 74.237C48.9663 73.7897 48.7059 73.236 48.7059 72.576C48.7059 72.092 48.8416 71.6813 49.1129 71.344C49.3843 71.0067 49.7509 70.75 50.2129 70.574C50.6823 70.398 51.2029 70.31 51.7749 70.31C52.2223 70.31 52.6109 70.3723 52.9409 70.497C53.2783 70.6217 53.5716 70.794 53.8209 71.014C54.0703 71.234 54.2866 71.4943 54.4699 71.795C54.5726 71.9563 54.6129 72.1103 54.5909 72.257C54.5763 72.3963 54.5066 72.5063 54.3819 72.587C54.2426 72.675 54.0923 72.6933 53.9309 72.642C53.7696 72.5907 53.6486 72.4953 53.5679 72.356C53.4506 72.1433 53.3076 71.9637 53.1389 71.817C52.9703 71.6703 52.7723 71.5567 52.5449 71.476C52.3176 71.388 52.0499 71.344 51.7419 71.344C51.1993 71.3367 50.7446 71.4393 50.3779 71.652C50.0113 71.8573 49.8279 72.1763 49.8279 72.609C49.8279 72.829 49.8829 73.0417 49.9929 73.247C50.1103 73.445 50.3193 73.6173 50.6199 73.764C50.9279 73.9107 51.3679 74.0133 51.9399 74.072C52.8126 74.16 53.4909 74.4277 53.9749 74.875C54.4663 75.315 54.7119 75.898 54.7119 76.624C54.7119 77.042 54.6239 77.405 54.4479 77.713C54.2793 78.021 54.0483 78.2813 53.7549 78.494C53.4689 78.6993 53.1389 78.8533 52.7649 78.956C52.3983 79.0587 52.0169 79.11 51.6209 79.11ZM70.3367 79C70.1754 79 70.0397 78.945 69.9297 78.835C69.8197 78.725 69.7647 78.5893 69.7647 78.428V70.409H70.9087V78.428C70.9087 78.5893 70.8537 78.725 70.7437 78.835C70.6337 78.945 70.4981 79 70.3367 79ZM67.3887 71.465C67.2347 71.465 67.1064 71.4173 67.0037 71.322C66.9084 71.2193 66.8607 71.091 66.8607 70.937C66.8607 70.783 66.9084 70.6583 67.0037 70.563C67.1064 70.4603 67.2347 70.409 67.3887 70.409H73.2737C73.4277 70.409 73.5524 70.4603 73.6477 70.563C73.7504 70.6583 73.8017 70.783 73.8017 70.937C73.8017 71.091 73.7504 71.2193 73.6477 71.322C73.5524 71.4173 73.4277 71.465 73.2737 71.465H67.3887ZM85.6163 79C85.411 79 85.2533 78.912 85.1433 78.736C85.0333 78.56 85.0223 78.373 85.1103 78.175L88.2013 70.794C88.3113 70.5373 88.491 70.409 88.7403 70.409C89.0043 70.409 89.184 70.5373 89.2793 70.794L92.3813 78.197C92.462 78.4023 92.4473 78.5893 92.3373 78.758C92.2347 78.9193 92.077 79 91.8643 79C91.7543 79 91.648 78.9707 91.5453 78.912C91.45 78.846 91.3803 78.758 91.3363 78.648L88.6083 71.872H88.9163L86.1443 78.648C86.093 78.7653 86.016 78.8533 85.9133 78.912C85.818 78.9707 85.719 79 85.6163 79ZM86.1993 77.108L86.6393 76.162H90.9513L91.3913 77.108H86.1993ZM89.4993 69.518C89.3087 69.518 89.1363 69.4777 88.9823 69.397C88.8283 69.309 88.6817 69.199 88.5423 69.067C88.4543 68.9863 88.381 68.924 88.3223 68.88C88.2637 68.8287 88.1977 68.803 88.1243 68.803C88.051 68.803 87.9887 68.8323 87.9373 68.891C87.886 68.9423 87.831 69.0157 87.7723 69.111C87.7063 69.221 87.6147 69.3017 87.4973 69.353C87.38 69.397 87.259 69.3933 87.1343 69.342C87.0097 69.2833 86.9217 69.1953 86.8703 69.078C86.8263 68.9533 86.841 68.8287 86.9143 68.704C87.0683 68.4253 87.237 68.2237 87.4203 68.099C87.6037 67.967 87.809 67.901 88.0363 67.901C88.293 67.901 88.4947 67.9633 88.6413 68.088C88.788 68.2053 88.909 68.3043 89.0043 68.385C89.0923 68.4583 89.162 68.5097 89.2133 68.539C89.272 68.5683 89.327 68.583 89.3783 68.583C89.459 68.583 89.5397 68.528 89.6203 68.418C89.701 68.3007 89.8 68.2163 89.9173 68.165C90.0347 68.1137 90.1557 68.1137 90.2803 68.165C90.4197 68.231 90.5113 68.3263 90.5553 68.451C90.5993 68.5757 90.581 68.7003 90.5003 68.825C90.3537 69.067 90.1997 69.243 90.0383 69.353C89.877 69.463 89.6973 69.518 89.4993 69.518ZM109.218 79.11C108.573 79.11 107.982 79.0037 107.447 78.791C106.912 78.571 106.45 78.2667 106.061 77.878C105.68 77.482 105.383 77.0163 105.17 76.481C104.957 75.9383 104.851 75.3443 104.851 74.699C104.851 74.0537 104.957 73.4633 105.17 72.928C105.383 72.3927 105.68 71.9307 106.061 71.542C106.45 71.146 106.912 70.8417 107.447 70.629C107.982 70.409 108.573 70.299 109.218 70.299C109.863 70.299 110.45 70.409 110.978 70.629C111.513 70.8417 111.975 71.146 112.364 71.542C112.753 71.9307 113.053 72.3927 113.266 72.928C113.479 73.4633 113.585 74.0537 113.585 74.699C113.585 75.3443 113.479 75.9383 113.266 76.481C113.053 77.0163 112.753 77.482 112.364 77.878C111.975 78.2667 111.513 78.571 110.978 78.791C110.45 79.0037 109.863 79.11 109.218 79.11ZM109.218 78.076C109.695 78.076 110.131 77.9917 110.527 77.823C110.93 77.647 111.279 77.4087 111.572 77.108C111.865 76.8 112.089 76.4407 112.243 76.03C112.404 75.6193 112.485 75.1757 112.485 74.699C112.485 74.2223 112.404 73.7787 112.243 73.368C112.089 72.9573 111.865 72.6017 111.572 72.301C111.279 71.993 110.93 71.7547 110.527 71.586C110.131 71.4173 109.695 71.333 109.218 71.333C108.741 71.333 108.301 71.4173 107.898 71.586C107.502 71.7547 107.157 71.993 106.864 72.301C106.578 72.6017 106.354 72.9573 106.193 73.368C106.032 73.7787 105.951 74.2223 105.951 74.699C105.951 75.1757 106.032 75.6193 106.193 76.03C106.354 76.4407 106.578 76.8 106.864 77.108C107.157 77.4087 107.502 77.647 107.898 77.823C108.301 77.9917 108.741 78.076 109.218 78.076ZM142.711 79C142.55 79 142.414 78.945 142.304 78.835C142.194 78.725 142.139 78.5893 142.139 78.428V70.981C142.139 70.8123 142.194 70.6767 142.304 70.574C142.414 70.464 142.55 70.409 142.711 70.409H144.911C145.461 70.409 145.949 70.53 146.374 70.772C146.8 71.014 147.13 71.3513 147.364 71.784C147.606 72.2093 147.727 72.7007 147.727 73.258C147.727 73.7933 147.606 74.27 147.364 74.688C147.13 75.106 146.8 75.4323 146.374 75.667C145.949 75.9017 145.461 76.019 144.911 76.019H143.283V78.428C143.283 78.5893 143.228 78.725 143.118 78.835C143.016 78.945 142.88 79 142.711 79ZM143.283 74.963H144.911C145.249 74.963 145.546 74.8897 145.802 74.743C146.059 74.5963 146.261 74.3947 146.407 74.138C146.554 73.8813 146.627 73.588 146.627 73.258C146.627 72.906 146.554 72.598 146.407 72.334C146.261 72.0627 146.059 71.85 145.802 71.696C145.546 71.542 145.249 71.465 144.911 71.465H143.283V74.963ZM160.089 79C159.884 79 159.726 78.912 159.616 78.736C159.506 78.56 159.495 78.373 159.583 78.175L162.674 70.794C162.784 70.5373 162.964 70.409 163.213 70.409C163.477 70.409 163.657 70.5373 163.752 70.794L166.854 78.197C166.935 78.4023 166.92 78.5893 166.81 78.758C166.707 78.9193 166.55 79 166.337 79C166.227 79 166.121 78.9707 166.018 78.912C165.923 78.846 165.853 78.758 165.809 78.648L163.081 71.872H163.389L160.617 78.648C160.566 78.7653 160.489 78.8533 160.386 78.912C160.291 78.9707 160.192 79 160.089 79ZM160.672 77.108L161.112 76.162H165.424L165.864 77.108H160.672ZM180.506 79C180.345 79 180.209 78.945 180.099 78.835C179.989 78.725 179.934 78.5893 179.934 78.428V70.981C179.934 70.8123 179.989 70.6767 180.099 70.574C180.209 70.464 180.345 70.409 180.506 70.409H182.486C183.036 70.409 183.524 70.5263 183.949 70.761C184.375 70.9883 184.705 71.3037 184.939 71.707C185.181 72.1103 185.302 72.5797 185.302 73.115C185.302 73.6137 185.181 74.0573 184.939 74.446C184.705 74.8347 184.375 75.139 183.949 75.359C183.524 75.579 183.036 75.689 182.486 75.689H181.078V78.428C181.078 78.5893 181.023 78.725 180.913 78.835C180.811 78.945 180.675 79 180.506 79ZM185.071 79C184.969 79 184.873 78.978 184.785 78.934C184.705 78.89 184.635 78.8203 184.576 78.725L182.596 75.535L183.707 75.216L185.511 78.12C185.643 78.3327 185.662 78.5343 185.566 78.725C185.471 78.9083 185.306 79 185.071 79ZM181.078 74.633H182.486C182.824 74.633 183.121 74.5707 183.377 74.446C183.634 74.314 183.836 74.1343 183.982 73.907C184.129 73.6723 184.202 73.4083 184.202 73.115C184.202 72.7923 184.129 72.5063 183.982 72.257C183.836 72.0077 183.634 71.8133 183.377 71.674C183.121 71.5347 182.824 71.465 182.486 71.465H181.078V74.633ZM198.314 79C198.108 79 197.951 78.912 197.841 78.736C197.731 78.56 197.72 78.373 197.808 78.175L200.899 70.794C201.009 70.5373 201.188 70.409 201.438 70.409C201.702 70.409 201.881 70.5373 201.977 70.794L205.079 78.197C205.159 78.4023 205.145 78.5893 205.035 78.758C204.932 78.9193 204.774 79 204.562 79C204.452 79 204.345 78.9707 204.243 78.912C204.147 78.846 204.078 78.758 204.034 78.648L201.306 71.872H201.614L198.842 78.648C198.79 78.7653 198.713 78.8533 198.611 78.912C198.515 78.9707 198.416 79 198.314 79ZM198.897 77.108L199.337 76.162H203.649L204.089 77.108H198.897ZM237.123 79.11C236.477 79.11 235.887 79.0037 235.352 78.791C234.816 78.571 234.354 78.2667 233.966 77.878C233.584 77.482 233.287 77.0163 233.075 76.481C232.862 75.9383 232.756 75.3443 232.756 74.699C232.756 74.0537 232.862 73.4633 233.075 72.928C233.287 72.3927 233.584 71.9307 233.966 71.542C234.354 71.146 234.816 70.8417 235.352 70.629C235.887 70.409 236.477 70.299 237.123 70.299C237.768 70.299 238.355 70.409 238.883 70.629C239.418 70.8417 239.88 71.146 240.269 71.542C240.657 71.9307 240.958 72.3927 241.171 72.928C241.383 73.4633 241.49 74.0537 241.49 74.699C241.49 75.3443 241.383 75.9383 241.171 76.481C240.958 77.0163 240.657 77.482 240.269 77.878C239.88 78.2667 239.418 78.571 238.883 78.791C238.355 79.0037 237.768 79.11 237.123 79.11ZM237.123 78.076C237.599 78.076 238.036 77.9917 238.432 77.823C238.835 77.647 239.183 77.4087 239.477 77.108C239.77 76.8 239.994 76.4407 240.148 76.03C240.309 75.6193 240.39 75.1757 240.39 74.699C240.39 74.2223 240.309 73.7787 240.148 73.368C239.994 72.9573 239.77 72.6017 239.477 72.301C239.183 71.993 238.835 71.7547 238.432 71.586C238.036 71.4173 237.599 71.333 237.123 71.333C236.646 71.333 236.206 71.4173 235.803 71.586C235.407 71.7547 235.062 71.993 234.769 72.301C234.483 72.6017 234.259 72.9573 234.098 73.368C233.936 73.7787 233.856 74.2223 233.856 74.699C233.856 75.1757 233.936 75.6193 234.098 76.03C234.259 76.4407 234.483 76.8 234.769 77.108C235.062 77.4087 235.407 77.647 235.803 77.823C236.206 77.9917 236.646 78.076 237.123 78.076ZM255.612 79C255.451 79 255.315 78.945 255.205 78.835C255.103 78.725 255.051 78.5893 255.051 78.428V70.981C255.051 70.8123 255.103 70.6767 255.205 70.574C255.315 70.464 255.451 70.409 255.612 70.409C255.788 70.409 255.935 70.4787 256.052 70.618L260.848 76.998V70.981C260.848 70.8123 260.903 70.6767 261.013 70.574C261.123 70.464 261.259 70.409 261.42 70.409C261.589 70.409 261.725 70.464 261.827 70.574C261.93 70.6767 261.981 70.8123 261.981 70.981V78.428C261.981 78.5893 261.93 78.725 261.827 78.835C261.725 78.945 261.589 79 261.42 79C261.347 79 261.266 78.9853 261.178 78.956C261.098 78.9193 261.032 78.868 260.98 78.802L256.184 72.422V78.428C256.184 78.5893 256.129 78.725 256.019 78.835C255.917 78.945 255.781 79 255.612 79ZM279.802 79.11C279.208 79.11 278.651 79 278.13 78.78C277.617 78.5527 277.166 78.241 276.777 77.845C276.396 77.4417 276.095 76.9723 275.875 76.437C275.663 75.9017 275.556 75.3223 275.556 74.699C275.556 74.083 275.663 73.511 275.875 72.983C276.095 72.4477 276.396 71.982 276.777 71.586C277.166 71.1827 277.617 70.8673 278.13 70.64C278.644 70.4127 279.201 70.299 279.802 70.299C280.367 70.299 280.851 70.3723 281.254 70.519C281.665 70.6657 282.076 70.9077 282.486 71.245C282.545 71.289 282.589 71.3367 282.618 71.388C282.655 71.432 282.677 71.4797 282.684 71.531C282.699 71.575 282.706 71.63 282.706 71.696C282.706 71.8353 282.655 71.9527 282.552 72.048C282.457 72.1433 282.336 72.1947 282.189 72.202C282.05 72.2093 281.918 72.1617 281.793 72.059C281.522 71.8243 281.24 71.6447 280.946 71.52C280.66 71.3953 280.279 71.333 279.802 71.333C279.37 71.333 278.963 71.421 278.581 71.597C278.2 71.773 277.863 72.015 277.569 72.323C277.283 72.631 277.06 72.9903 276.898 73.401C276.737 73.8043 276.656 74.237 276.656 74.699C276.656 75.1683 276.737 75.6083 276.898 76.019C277.06 76.4223 277.283 76.778 277.569 77.086C277.863 77.394 278.2 77.636 278.581 77.812C278.963 77.9807 279.37 78.065 279.802 78.065C280.176 78.065 280.528 78.0027 280.858 77.878C281.196 77.746 281.518 77.5663 281.826 77.339C281.958 77.2437 282.087 77.2033 282.211 77.218C282.343 77.2253 282.453 77.2767 282.541 77.372C282.629 77.46 282.673 77.5847 282.673 77.746C282.673 77.8193 282.659 77.8927 282.629 77.966C282.607 78.032 282.563 78.0943 282.497 78.153C282.109 78.4757 281.687 78.7177 281.232 78.879C280.778 79.033 280.301 79.11 279.802 79.11ZM282.673 77.746L281.573 77.526V75.557H280.055C279.894 75.557 279.758 75.5093 279.648 75.414C279.538 75.3187 279.483 75.1977 279.483 75.051C279.483 74.9043 279.538 74.7833 279.648 74.688C279.758 74.5927 279.894 74.545 280.055 74.545H282.112C282.281 74.545 282.417 74.6 282.519 74.71C282.622 74.8127 282.673 74.9483 282.673 75.117V77.746ZM295.492 73.478C295.375 73.478 295.283 73.4267 295.217 73.324C295.158 73.214 295.155 73.1003 295.206 72.983C295.338 72.6823 295.419 72.4367 295.448 72.246C295.477 72.0553 295.477 71.8903 295.448 71.751C295.426 71.6117 295.397 71.4797 295.36 71.355C295.323 71.223 295.305 71.0763 295.305 70.915C295.305 70.7243 295.371 70.5667 295.503 70.442C295.635 70.3173 295.793 70.255 295.976 70.255C296.203 70.255 296.379 70.3503 296.504 70.541C296.629 70.7317 296.691 70.97 296.691 71.256C296.691 71.4467 296.651 71.6667 296.57 71.916C296.489 72.1653 296.387 72.411 296.262 72.653C296.145 72.8877 296.016 73.0857 295.877 73.247C295.738 73.401 295.609 73.478 295.492 73.478ZM312.844 79.11C312.375 79.11 311.928 79.0367 311.502 78.89C311.077 78.7433 310.707 78.538 310.391 78.274C310.076 78.01 309.845 77.7057 309.698 77.361C309.625 77.207 309.625 77.064 309.698 76.932C309.779 76.8 309.911 76.7157 310.094 76.679C310.226 76.6497 310.355 76.6717 310.479 76.745C310.611 76.811 310.71 76.9137 310.776 77.053C310.864 77.2363 311.007 77.405 311.205 77.559C311.411 77.713 311.656 77.8377 311.942 77.933C312.228 78.0283 312.529 78.076 312.844 78.076C313.196 78.076 313.519 78.021 313.812 77.911C314.113 77.801 314.355 77.6433 314.538 77.438C314.722 77.2253 314.813 76.965 314.813 76.657C314.813 76.2683 314.659 75.92 314.351 75.612C314.051 75.304 313.552 75.1133 312.855 75.04C311.946 74.952 311.231 74.6843 310.71 74.237C310.19 73.7897 309.929 73.236 309.929 72.576C309.929 72.092 310.065 71.6813 310.336 71.344C310.608 71.0067 310.974 70.75 311.436 70.574C311.906 70.398 312.426 70.31 312.998 70.31C313.446 70.31 313.834 70.3723 314.164 70.497C314.502 70.6217 314.795 70.794 315.044 71.014C315.294 71.234 315.51 71.4943 315.693 71.795C315.796 71.9563 315.836 72.1103 315.814 72.257C315.8 72.3963 315.73 72.5063 315.605 72.587C315.466 72.675 315.316 72.6933 315.154 72.642C314.993 72.5907 314.872 72.4953 314.791 72.356C314.674 72.1433 314.531 71.9637 314.362 71.817C314.194 71.6703 313.996 71.5567 313.768 71.476C313.541 71.388 313.273 71.344 312.965 71.344C312.423 71.3367 311.968 71.4393 311.601 71.652C311.235 71.8573 311.051 72.1763 311.051 72.609C311.051 72.829 311.106 73.0417 311.216 73.247C311.334 73.445 311.543 73.6173 311.843 73.764C312.151 73.9107 312.591 74.0133 313.163 74.072C314.036 74.16 314.714 74.4277 315.198 74.875C315.69 75.315 315.935 75.898 315.935 76.624C315.935 77.042 315.847 77.405 315.671 77.713C315.503 78.021 315.272 78.2813 314.978 78.494C314.692 78.6993 314.362 78.8533 313.988 78.956C313.622 79.0587 313.24 79.11 312.844 79.11Z" fill="black"/>
</svg>
